<mxfile host="app.diagrams.net" modified="2021-04-01T00:05:22.273Z" agent="5.0 (Macintosh; Intel Mac OS X 11_2_3) AppleWebKit/537.36 (KHTML, like Gecko) Chrome/89.0.4389.90 Safari/537.36" etag="8Vz4SCqDTzUXUTYsc2GG" version="14.5.3" type="github" pages="14">
  <diagram id="6BHxPYrYha_IAXa4hT4B" name="Site map">
    <mxGraphModel dx="946" dy="589" grid="1" gridSize="10" guides="1" tooltips="1" connect="1" arrows="1" fold="1" page="1" pageScale="1" pageWidth="850" pageHeight="1100" math="0" shadow="0">
      <root>
        <mxCell id="jSKRhnqbRBqFd3RoWQQz-0" />
        <mxCell id="jSKRhnqbRBqFd3RoWQQz-1" parent="jSKRhnqbRBqFd3RoWQQz-0" />
        <mxCell id="rxfOGpvoUFqQ_eX6fvpq-0" value="HOME" style="rounded=0;whiteSpace=wrap;html=1;" vertex="1" parent="jSKRhnqbRBqFd3RoWQQz-1">
          <mxGeometry x="365" y="40" width="120" height="60" as="geometry" />
        </mxCell>
        <mxCell id="rxfOGpvoUFqQ_eX6fvpq-1" value="1. Catálogo" style="rounded=0;whiteSpace=wrap;html=1;" vertex="1" parent="jSKRhnqbRBqFd3RoWQQz-1">
          <mxGeometry x="20" y="170" width="120" height="60" as="geometry" />
        </mxCell>
        <mxCell id="rxfOGpvoUFqQ_eX6fvpq-3" value="2. Login" style="rounded=0;whiteSpace=wrap;html=1;" vertex="1" parent="jSKRhnqbRBqFd3RoWQQz-1">
          <mxGeometry x="200" y="170" width="120" height="60" as="geometry" />
        </mxCell>
        <mxCell id="rxfOGpvoUFqQ_eX6fvpq-4" value="3. Ajuda" style="rounded=0;whiteSpace=wrap;html=1;" vertex="1" parent="jSKRhnqbRBqFd3RoWQQz-1">
          <mxGeometry x="350" y="170" width="120" height="60" as="geometry" />
        </mxCell>
        <mxCell id="rxfOGpvoUFqQ_eX6fvpq-5" value="4. Quem somos" style="rounded=0;whiteSpace=wrap;html=1;" vertex="1" parent="jSKRhnqbRBqFd3RoWQQz-1">
          <mxGeometry x="490" y="170" width="120" height="60" as="geometry" />
        </mxCell>
        <mxCell id="rxfOGpvoUFqQ_eX6fvpq-6" value="5. Termos de uso/privacidade" style="rounded=0;whiteSpace=wrap;html=1;" vertex="1" parent="jSKRhnqbRBqFd3RoWQQz-1">
          <mxGeometry x="630" y="170" width="120" height="60" as="geometry" />
        </mxCell>
        <mxCell id="rxfOGpvoUFqQ_eX6fvpq-8" value="6. Cadastro" style="rounded=0;whiteSpace=wrap;html=1;" vertex="1" parent="jSKRhnqbRBqFd3RoWQQz-1">
          <mxGeometry x="770" y="170" width="120" height="60" as="geometry" />
        </mxCell>
        <mxCell id="rxfOGpvoUFqQ_eX6fvpq-9" value="7. Carrinho" style="rounded=0;whiteSpace=wrap;html=1;" vertex="1" parent="jSKRhnqbRBqFd3RoWQQz-1">
          <mxGeometry x="910" y="170" width="120" height="60" as="geometry" />
        </mxCell>
        <mxCell id="rxfOGpvoUFqQ_eX6fvpq-10" value="1.1 Detalhes do produto" style="rounded=0;whiteSpace=wrap;html=1;" vertex="1" parent="jSKRhnqbRBqFd3RoWQQz-1">
          <mxGeometry x="40" y="240" width="120" height="60" as="geometry" />
        </mxCell>
        <mxCell id="rxfOGpvoUFqQ_eX6fvpq-11" value="obs: direcionar para o carrinho" style="rounded=0;whiteSpace=wrap;html=1;" vertex="1" parent="jSKRhnqbRBqFd3RoWQQz-1">
          <mxGeometry x="40" y="310" width="120" height="60" as="geometry" />
        </mxCell>
        <mxCell id="OkFQYpJ-uSqJq6BeiUNQ-0" value="2.1 Perfil do cliente" style="rounded=0;whiteSpace=wrap;html=1;" vertex="1" parent="jSKRhnqbRBqFd3RoWQQz-1">
          <mxGeometry x="220" y="250" width="120" height="60" as="geometry" />
        </mxCell>
        <mxCell id="OkFQYpJ-uSqJq6BeiUNQ-1" value="2.2 Cadastro do jogo" style="rounded=0;whiteSpace=wrap;html=1;" vertex="1" parent="jSKRhnqbRBqFd3RoWQQz-1">
          <mxGeometry x="220" y="320" width="120" height="60" as="geometry" />
        </mxCell>
        <mxCell id="OkFQYpJ-uSqJq6BeiUNQ-2" value="2.3 Acompanhamento do pedido" style="rounded=0;whiteSpace=wrap;html=1;" vertex="1" parent="jSKRhnqbRBqFd3RoWQQz-1">
          <mxGeometry x="220" y="390" width="120" height="60" as="geometry" />
        </mxCell>
        <mxCell id="OkFQYpJ-uSqJq6BeiUNQ-3" value="7.1 Pagamento" style="rounded=0;whiteSpace=wrap;html=1;" vertex="1" parent="jSKRhnqbRBqFd3RoWQQz-1">
          <mxGeometry x="930" y="240" width="120" height="60" as="geometry" />
        </mxCell>
        <mxCell id="OkFQYpJ-uSqJq6BeiUNQ-4" value="7.2 Confirmação da compra" style="rounded=0;whiteSpace=wrap;html=1;" vertex="1" parent="jSKRhnqbRBqFd3RoWQQz-1">
          <mxGeometry x="930" y="310" width="120" height="60" as="geometry" />
        </mxCell>
        <mxCell id="OkFQYpJ-uSqJq6BeiUNQ-5" value="2.4 Favoritos" style="rounded=0;whiteSpace=wrap;html=1;" vertex="1" parent="jSKRhnqbRBqFd3RoWQQz-1">
          <mxGeometry x="220" y="460" width="120" height="60" as="geometry" />
        </mxCell>
        <mxCell id="OkFQYpJ-uSqJq6BeiUNQ-6" value="Admin" style="rounded=0;whiteSpace=wrap;html=1;" vertex="1" parent="jSKRhnqbRBqFd3RoWQQz-1">
          <mxGeometry x="60" y="620" width="120" height="60" as="geometry" />
        </mxCell>
        <mxCell id="OkFQYpJ-uSqJq6BeiUNQ-7" value="Admin" style="rounded=0;whiteSpace=wrap;html=1;" vertex="1" parent="jSKRhnqbRBqFd3RoWQQz-1">
          <mxGeometry x="80" y="700" width="120" height="60" as="geometry" />
        </mxCell>
      </root>
    </mxGraphModel>
  </diagram>
  <diagram name="Home" id="03018318-947c-dd8e-b7a3-06fadd420f32">
    <mxGraphModel dx="3146" dy="589" grid="1" gridSize="10" guides="1" tooltips="1" connect="1" arrows="1" fold="1" page="1" pageScale="1" pageWidth="1100" pageHeight="850" background="#ffffff" math="0" shadow="0">
      <root>
        <mxCell id="0" />
        <mxCell id="1" parent="0" />
        <mxCell id="677b7b8949515195-38" value="Section 14" style="text;html=1;points=[];align=left;verticalAlign=top;spacingTop=-4;fontSize=14;fontFamily=Verdana" parent="1" vertex="1">
          <mxGeometry x="40" y="714" width="170" height="20" as="geometry" />
        </mxCell>
        <mxCell id="EvlID4vW6CZQDOhn_EE_-19" value="" style="rounded=0;whiteSpace=wrap;html=1;" vertex="1" parent="1">
          <mxGeometry x="-1700" y="175" width="1100" height="50" as="geometry" />
        </mxCell>
        <mxCell id="EvlID4vW6CZQDOhn_EE_-20" value="" style="rounded=0;whiteSpace=wrap;html=1;" vertex="1" parent="1">
          <mxGeometry x="-1700" y="40" width="1100" height="135" as="geometry" />
        </mxCell>
        <mxCell id="EvlID4vW6CZQDOhn_EE_-21" value="Search" style="strokeWidth=1;shadow=0;dashed=0;align=center;html=1;shape=mxgraph.mockup.forms.searchBox;strokeColor=#999999;mainText=;strokeColor2=#008cff;fontColor=#666666;fontSize=17;align=left;spacingLeft=3;rounded=0;labelBackgroundColor=none;comic=1;" vertex="1" parent="1">
          <mxGeometry x="-1400" y="95" width="370" height="30" as="geometry" />
        </mxCell>
        <mxCell id="EvlID4vW6CZQDOhn_EE_-22" value="Login/Registro/Usuário" style="text;html=1;points=[];align=left;verticalAlign=top;spacingTop=-4;fontSize=14;fontFamily=Verdana" vertex="1" parent="1">
          <mxGeometry x="-1017" y="100" width="60" height="20" as="geometry" />
        </mxCell>
        <mxCell id="EvlID4vW6CZQDOhn_EE_-23" value="Favoritos(icone)" style="text;html=1;points=[];align=left;verticalAlign=top;spacingTop=-4;fontSize=14;fontFamily=Verdana" vertex="1" parent="1">
          <mxGeometry x="-870" y="100" width="60" height="20" as="geometry" />
        </mxCell>
        <mxCell id="EvlID4vW6CZQDOhn_EE_-24" value="Itens no carrinho(Icone)" style="text;html=1;points=[];align=left;verticalAlign=top;spacingTop=-4;fontSize=14;fontFamily=Verdana" vertex="1" parent="1">
          <mxGeometry x="-770" y="100" width="60" height="20" as="geometry" />
        </mxCell>
        <mxCell id="EvlID4vW6CZQDOhn_EE_-25" value="Menu" style="text;html=1;points=[];align=left;verticalAlign=top;spacingTop=-4;fontSize=14;fontFamily=Verdana" vertex="1" parent="1">
          <mxGeometry x="-1640" y="190" width="60" height="20" as="geometry" />
        </mxCell>
        <mxCell id="EvlID4vW6CZQDOhn_EE_-26" value="&lt;font style=&quot;font-size: 36px&quot;&gt;Logo&lt;/font&gt;" style="rounded=1;whiteSpace=wrap;html=1;" vertex="1" parent="1">
          <mxGeometry x="-1670" y="65" width="230" height="80" as="geometry" />
        </mxCell>
        <mxCell id="EvlID4vW6CZQDOhn_EE_-27" value="" style="rounded=0;whiteSpace=wrap;html=1;" vertex="1" parent="1">
          <mxGeometry x="-1700" y="225" width="1100" height="50" as="geometry" />
        </mxCell>
      </root>
    </mxGraphModel>
  </diagram>
  <diagram id="76qGkDXaDrzP4gvBoVVX" name="1.1 Detalhes do produto">
    <mxGraphModel dx="2646" dy="589" grid="1" gridSize="10" guides="1" tooltips="1" connect="1" arrows="1" fold="1" page="1" pageScale="1" pageWidth="850" pageHeight="1100" math="0" shadow="0">
      <root>
        <mxCell id="1beiMoYhPYEvIwXm0a7y-0" />
        <mxCell id="1beiMoYhPYEvIwXm0a7y-1" parent="1beiMoYhPYEvIwXm0a7y-0" />
        <mxCell id="Fs6uX-oWleEeRA5tCD-5-19" value="" style="rounded=0;whiteSpace=wrap;html=1;" parent="1beiMoYhPYEvIwXm0a7y-1" vertex="1">
          <mxGeometry x="-1540" y="185" width="1100" height="50" as="geometry" />
        </mxCell>
        <mxCell id="Fs6uX-oWleEeRA5tCD-5-20" value="" style="rounded=0;whiteSpace=wrap;html=1;" parent="1beiMoYhPYEvIwXm0a7y-1" vertex="1">
          <mxGeometry x="-1540" y="50" width="1100" height="135" as="geometry" />
        </mxCell>
        <mxCell id="Fs6uX-oWleEeRA5tCD-5-21" value="Search" style="strokeWidth=1;shadow=0;dashed=0;align=center;html=1;shape=mxgraph.mockup.forms.searchBox;strokeColor=#999999;mainText=;strokeColor2=#008cff;fontColor=#666666;fontSize=17;align=left;spacingLeft=3;rounded=0;labelBackgroundColor=none;comic=1;" parent="1beiMoYhPYEvIwXm0a7y-1" vertex="1">
          <mxGeometry x="-1240" y="105" width="370" height="30" as="geometry" />
        </mxCell>
        <mxCell id="Fs6uX-oWleEeRA5tCD-5-22" value="Login/Registro/Usuário" style="text;html=1;points=[];align=left;verticalAlign=top;spacingTop=-4;fontSize=14;fontFamily=Verdana" parent="1beiMoYhPYEvIwXm0a7y-1" vertex="1">
          <mxGeometry x="-857" y="110" width="60" height="20" as="geometry" />
        </mxCell>
        <mxCell id="Fs6uX-oWleEeRA5tCD-5-23" value="Favoritos(icone)" style="text;html=1;points=[];align=left;verticalAlign=top;spacingTop=-4;fontSize=14;fontFamily=Verdana" parent="1beiMoYhPYEvIwXm0a7y-1" vertex="1">
          <mxGeometry x="-710" y="110" width="60" height="20" as="geometry" />
        </mxCell>
        <mxCell id="Fs6uX-oWleEeRA5tCD-5-24" value="Itens no carrinho(Icone)" style="text;html=1;points=[];align=left;verticalAlign=top;spacingTop=-4;fontSize=14;fontFamily=Verdana" parent="1beiMoYhPYEvIwXm0a7y-1" vertex="1">
          <mxGeometry x="-610" y="110" width="60" height="20" as="geometry" />
        </mxCell>
        <mxCell id="Fs6uX-oWleEeRA5tCD-5-25" value="Menu" style="text;html=1;points=[];align=left;verticalAlign=top;spacingTop=-4;fontSize=14;fontFamily=Verdana" parent="1beiMoYhPYEvIwXm0a7y-1" vertex="1">
          <mxGeometry x="-1480" y="200" width="60" height="20" as="geometry" />
        </mxCell>
        <mxCell id="Fs6uX-oWleEeRA5tCD-5-26" value="&lt;font style=&quot;font-size: 36px&quot;&gt;Logo&lt;/font&gt;" style="rounded=1;whiteSpace=wrap;html=1;" parent="1beiMoYhPYEvIwXm0a7y-1" vertex="1">
          <mxGeometry x="-1510" y="75" width="230" height="80" as="geometry" />
        </mxCell>
        <mxCell id="Fs6uX-oWleEeRA5tCD-5-27" value="" style="rounded=0;whiteSpace=wrap;html=1;" parent="1beiMoYhPYEvIwXm0a7y-1" vertex="1">
          <mxGeometry x="-1540" y="235" width="1100" height="50" as="geometry" />
        </mxCell>
      </root>
    </mxGraphModel>
  </diagram>
  <diagram id="wH2rziI9w0hHYgkecAog" name="Ajuda/Suporte">
    <mxGraphModel dx="2646" dy="589" grid="1" gridSize="10" guides="1" tooltips="1" connect="1" arrows="1" fold="1" page="1" pageScale="1" pageWidth="850" pageHeight="1100" math="0" shadow="0">
      <root>
        <mxCell id="UxKOTzZetm44uuv51IiD-0" />
        <mxCell id="UxKOTzZetm44uuv51IiD-1" parent="UxKOTzZetm44uuv51IiD-0" />
        <mxCell id="1ooFwqgg6O3PLf-T5CDb-0" value="" style="rounded=0;whiteSpace=wrap;html=1;" vertex="1" parent="UxKOTzZetm44uuv51IiD-1">
          <mxGeometry x="-1135" y="165" width="1100" height="50" as="geometry" />
        </mxCell>
        <mxCell id="1ooFwqgg6O3PLf-T5CDb-1" value="" style="rounded=0;whiteSpace=wrap;html=1;" vertex="1" parent="UxKOTzZetm44uuv51IiD-1">
          <mxGeometry x="-1135" y="30" width="1100" height="135" as="geometry" />
        </mxCell>
        <mxCell id="1ooFwqgg6O3PLf-T5CDb-2" value="Search" style="strokeWidth=1;shadow=0;dashed=0;align=center;html=1;shape=mxgraph.mockup.forms.searchBox;strokeColor=#999999;mainText=;strokeColor2=#008cff;fontColor=#666666;fontSize=17;align=left;spacingLeft=3;rounded=0;labelBackgroundColor=none;comic=1;" vertex="1" parent="UxKOTzZetm44uuv51IiD-1">
          <mxGeometry x="-835" y="85" width="370" height="30" as="geometry" />
        </mxCell>
        <mxCell id="1ooFwqgg6O3PLf-T5CDb-3" value="Login/Registro/Usuário" style="text;html=1;points=[];align=left;verticalAlign=top;spacingTop=-4;fontSize=14;fontFamily=Verdana" vertex="1" parent="UxKOTzZetm44uuv51IiD-1">
          <mxGeometry x="-452" y="90" width="60" height="20" as="geometry" />
        </mxCell>
        <mxCell id="1ooFwqgg6O3PLf-T5CDb-4" value="Favoritos(icone)" style="text;html=1;points=[];align=left;verticalAlign=top;spacingTop=-4;fontSize=14;fontFamily=Verdana" vertex="1" parent="UxKOTzZetm44uuv51IiD-1">
          <mxGeometry x="-305" y="90" width="60" height="20" as="geometry" />
        </mxCell>
        <mxCell id="1ooFwqgg6O3PLf-T5CDb-5" value="Itens no carrinho(Icone)" style="text;html=1;points=[];align=left;verticalAlign=top;spacingTop=-4;fontSize=14;fontFamily=Verdana" vertex="1" parent="UxKOTzZetm44uuv51IiD-1">
          <mxGeometry x="-205" y="90" width="60" height="20" as="geometry" />
        </mxCell>
        <mxCell id="1ooFwqgg6O3PLf-T5CDb-6" value="Menu" style="text;html=1;points=[];align=left;verticalAlign=top;spacingTop=-4;fontSize=14;fontFamily=Verdana" vertex="1" parent="UxKOTzZetm44uuv51IiD-1">
          <mxGeometry x="-1075" y="180" width="60" height="20" as="geometry" />
        </mxCell>
        <mxCell id="1ooFwqgg6O3PLf-T5CDb-7" value="&lt;font style=&quot;font-size: 36px&quot;&gt;Logo&lt;/font&gt;" style="rounded=1;whiteSpace=wrap;html=1;" vertex="1" parent="UxKOTzZetm44uuv51IiD-1">
          <mxGeometry x="-1105" y="55" width="230" height="80" as="geometry" />
        </mxCell>
        <mxCell id="1ooFwqgg6O3PLf-T5CDb-8" value="" style="rounded=0;whiteSpace=wrap;html=1;" vertex="1" parent="UxKOTzZetm44uuv51IiD-1">
          <mxGeometry x="-1135" y="215" width="1100" height="50" as="geometry" />
        </mxCell>
      </root>
    </mxGraphModel>
  </diagram>
  <diagram id="SwP_xfxtCfYEdSW9mGVN" name="Perfil do cliente">
    <mxGraphModel dx="2646" dy="589" grid="1" gridSize="10" guides="1" tooltips="1" connect="1" arrows="1" fold="1" page="1" pageScale="1" pageWidth="850" pageHeight="1100" math="0" shadow="0">
      <root>
        <mxCell id="Axev3EsFKdRVuj_XaynP-0" />
        <mxCell id="Axev3EsFKdRVuj_XaynP-1" parent="Axev3EsFKdRVuj_XaynP-0" />
        <mxCell id="3ai3t4ZVGuiOGLlFuQrW-0" value="" style="rounded=0;whiteSpace=wrap;html=1;" vertex="1" parent="Axev3EsFKdRVuj_XaynP-1">
          <mxGeometry x="-1135" y="165" width="1100" height="50" as="geometry" />
        </mxCell>
        <mxCell id="3ai3t4ZVGuiOGLlFuQrW-1" value="" style="rounded=0;whiteSpace=wrap;html=1;" vertex="1" parent="Axev3EsFKdRVuj_XaynP-1">
          <mxGeometry x="-1135" y="30" width="1100" height="135" as="geometry" />
        </mxCell>
        <mxCell id="3ai3t4ZVGuiOGLlFuQrW-2" value="Search" style="strokeWidth=1;shadow=0;dashed=0;align=center;html=1;shape=mxgraph.mockup.forms.searchBox;strokeColor=#999999;mainText=;strokeColor2=#008cff;fontColor=#666666;fontSize=17;align=left;spacingLeft=3;rounded=0;labelBackgroundColor=none;comic=1;" vertex="1" parent="Axev3EsFKdRVuj_XaynP-1">
          <mxGeometry x="-835" y="85" width="370" height="30" as="geometry" />
        </mxCell>
        <mxCell id="3ai3t4ZVGuiOGLlFuQrW-3" value="Login/Registro/Usuário" style="text;html=1;points=[];align=left;verticalAlign=top;spacingTop=-4;fontSize=14;fontFamily=Verdana" vertex="1" parent="Axev3EsFKdRVuj_XaynP-1">
          <mxGeometry x="-452" y="90" width="60" height="20" as="geometry" />
        </mxCell>
        <mxCell id="3ai3t4ZVGuiOGLlFuQrW-4" value="Favoritos(icone)" style="text;html=1;points=[];align=left;verticalAlign=top;spacingTop=-4;fontSize=14;fontFamily=Verdana" vertex="1" parent="Axev3EsFKdRVuj_XaynP-1">
          <mxGeometry x="-305" y="90" width="60" height="20" as="geometry" />
        </mxCell>
        <mxCell id="3ai3t4ZVGuiOGLlFuQrW-5" value="Itens no carrinho(Icone)" style="text;html=1;points=[];align=left;verticalAlign=top;spacingTop=-4;fontSize=14;fontFamily=Verdana" vertex="1" parent="Axev3EsFKdRVuj_XaynP-1">
          <mxGeometry x="-205" y="90" width="60" height="20" as="geometry" />
        </mxCell>
        <mxCell id="3ai3t4ZVGuiOGLlFuQrW-6" value="Menu" style="text;html=1;points=[];align=left;verticalAlign=top;spacingTop=-4;fontSize=14;fontFamily=Verdana" vertex="1" parent="Axev3EsFKdRVuj_XaynP-1">
          <mxGeometry x="-1075" y="180" width="60" height="20" as="geometry" />
        </mxCell>
        <mxCell id="3ai3t4ZVGuiOGLlFuQrW-7" value="&lt;font style=&quot;font-size: 36px&quot;&gt;Logo&lt;/font&gt;" style="rounded=1;whiteSpace=wrap;html=1;" vertex="1" parent="Axev3EsFKdRVuj_XaynP-1">
          <mxGeometry x="-1105" y="55" width="230" height="80" as="geometry" />
        </mxCell>
        <mxCell id="3ai3t4ZVGuiOGLlFuQrW-8" value="" style="rounded=0;whiteSpace=wrap;html=1;" vertex="1" parent="Axev3EsFKdRVuj_XaynP-1">
          <mxGeometry x="-1135" y="215" width="1100" height="50" as="geometry" />
        </mxCell>
      </root>
    </mxGraphModel>
  </diagram>
  <diagram name="Carrinho" id="KCILLXkkP0Swbf9XyfKC">
    <mxGraphModel dx="2115" dy="589" grid="1" gridSize="10" guides="1" tooltips="1" connect="1" arrows="1" fold="1" page="1" pageScale="1" pageWidth="1169" pageHeight="827" background="#ffffff" math="0" shadow="0">
      <root>
        <mxCell id="OjLqEyWXbQTBjti2A4C7-0" />
        <mxCell id="OjLqEyWXbQTBjti2A4C7-1" parent="OjLqEyWXbQTBjti2A4C7-0" />
        <mxCell id="J1p3hHA4gyAyO3NewoR--10" value="" style="rounded=0;whiteSpace=wrap;html=1;" parent="OjLqEyWXbQTBjti2A4C7-1" vertex="1">
          <mxGeometry x="-1133" y="270" width="1097" height="400" as="geometry" />
        </mxCell>
        <mxCell id="J1p3hHA4gyAyO3NewoR--3" value="" style="rounded=0;whiteSpace=wrap;html=1;" parent="OjLqEyWXbQTBjti2A4C7-1" vertex="1">
          <mxGeometry x="-1135" y="165" width="1100" height="50" as="geometry" />
        </mxCell>
        <mxCell id="J1p3hHA4gyAyO3NewoR--2" value="" style="rounded=0;whiteSpace=wrap;html=1;" parent="OjLqEyWXbQTBjti2A4C7-1" vertex="1">
          <mxGeometry x="-1135" y="30" width="1100" height="135" as="geometry" />
        </mxCell>
        <mxCell id="OjLqEyWXbQTBjti2A4C7-4" value="Search" style="strokeWidth=1;shadow=0;dashed=0;align=center;html=1;shape=mxgraph.mockup.forms.searchBox;strokeColor=#999999;mainText=;strokeColor2=#008cff;fontColor=#666666;fontSize=17;align=left;spacingLeft=3;rounded=0;labelBackgroundColor=none;comic=1;" parent="OjLqEyWXbQTBjti2A4C7-1" vertex="1">
          <mxGeometry x="-835" y="85" width="370" height="30" as="geometry" />
        </mxCell>
        <mxCell id="OjLqEyWXbQTBjti2A4C7-5" value="Login/Registro/Usuário" style="text;html=1;points=[];align=left;verticalAlign=top;spacingTop=-4;fontSize=14;fontFamily=Verdana" parent="OjLqEyWXbQTBjti2A4C7-1" vertex="1">
          <mxGeometry x="-452" y="90" width="60" height="20" as="geometry" />
        </mxCell>
        <mxCell id="OjLqEyWXbQTBjti2A4C7-6" value="Favoritos(icone)" style="text;html=1;points=[];align=left;verticalAlign=top;spacingTop=-4;fontSize=14;fontFamily=Verdana" parent="OjLqEyWXbQTBjti2A4C7-1" vertex="1">
          <mxGeometry x="-305" y="90" width="60" height="20" as="geometry" />
        </mxCell>
        <mxCell id="OjLqEyWXbQTBjti2A4C7-7" value="Itens no carrinho(Icone)" style="text;html=1;points=[];align=left;verticalAlign=top;spacingTop=-4;fontSize=14;fontFamily=Verdana" parent="OjLqEyWXbQTBjti2A4C7-1" vertex="1">
          <mxGeometry x="-205" y="90" width="60" height="20" as="geometry" />
        </mxCell>
        <mxCell id="OjLqEyWXbQTBjti2A4C7-12" value="Menu" style="text;html=1;points=[];align=left;verticalAlign=top;spacingTop=-4;fontSize=14;fontFamily=Verdana" parent="OjLqEyWXbQTBjti2A4C7-1" vertex="1">
          <mxGeometry x="-1075" y="180" width="60" height="20" as="geometry" />
        </mxCell>
        <mxCell id="OjLqEyWXbQTBjti2A4C7-13" value="Xbox One" style="text;html=1;points=[];align=left;verticalAlign=top;spacingTop=-4;fontSize=14;fontFamily=Verdana" parent="OjLqEyWXbQTBjti2A4C7-1" vertex="1">
          <mxGeometry x="-920" y="180" width="60" height="20" as="geometry" />
        </mxCell>
        <mxCell id="OjLqEyWXbQTBjti2A4C7-14" value="Playstation 4" style="text;html=1;points=[];align=left;verticalAlign=top;spacingTop=-4;fontSize=14;fontFamily=Verdana" parent="OjLqEyWXbQTBjti2A4C7-1" vertex="1">
          <mxGeometry x="-730" y="180" width="60" height="20" as="geometry" />
        </mxCell>
        <mxCell id="OjLqEyWXbQTBjti2A4C7-15" value="Nintendo Switch" style="text;html=1;points=[];align=left;verticalAlign=top;spacingTop=-4;fontSize=14;fontFamily=Verdana" parent="OjLqEyWXbQTBjti2A4C7-1" vertex="1">
          <mxGeometry x="-520" y="180" width="60" height="20" as="geometry" />
        </mxCell>
        <mxCell id="J1p3hHA4gyAyO3NewoR--1" value="&lt;font style=&quot;font-size: 36px&quot;&gt;Logo&lt;/font&gt;" style="rounded=1;whiteSpace=wrap;html=1;" parent="OjLqEyWXbQTBjti2A4C7-1" vertex="1">
          <mxGeometry x="-1105" y="55" width="230" height="80" as="geometry" />
        </mxCell>
        <mxCell id="J1p3hHA4gyAyO3NewoR--4" value="Xbox Series" style="text;html=1;points=[];align=left;verticalAlign=top;spacingTop=-4;fontSize=14;fontFamily=Verdana" parent="OjLqEyWXbQTBjti2A4C7-1" vertex="1">
          <mxGeometry x="-830" y="180" width="60" height="20" as="geometry" />
        </mxCell>
        <mxCell id="J1p3hHA4gyAyO3NewoR--6" value="Playstation 5" style="text;html=1;points=[];align=left;verticalAlign=top;spacingTop=-4;fontSize=14;fontFamily=Verdana" parent="OjLqEyWXbQTBjti2A4C7-1" vertex="1">
          <mxGeometry x="-620" y="180" width="60" height="20" as="geometry" />
        </mxCell>
        <mxCell id="J1p3hHA4gyAyO3NewoR--7" value="" style="rounded=0;whiteSpace=wrap;html=1;" parent="OjLqEyWXbQTBjti2A4C7-1" vertex="1">
          <mxGeometry x="-1135" y="215" width="1100" height="50" as="geometry" />
        </mxCell>
        <mxCell id="J1p3hHA4gyAyO3NewoR--8" value="Rorapé com informações de contato, seguindo o padrão da pagina principal" style="rounded=0;whiteSpace=wrap;html=1;" parent="OjLqEyWXbQTBjti2A4C7-1" vertex="1">
          <mxGeometry x="-1137" y="675" width="1100" height="50" as="geometry" />
        </mxCell>
        <mxCell id="J1p3hHA4gyAyO3NewoR--9" value="&lt;font style=&quot;font-size: 18px&quot;&gt;Status do carrinho e itens&lt;/font&gt;" style="text;html=1;strokeColor=none;fillColor=none;align=center;verticalAlign=middle;whiteSpace=wrap;rounded=0;" parent="OjLqEyWXbQTBjti2A4C7-1" vertex="1">
          <mxGeometry x="-1120" y="300" width="285" height="90" as="geometry" />
        </mxCell>
      </root>
    </mxGraphModel>
  </diagram>
  <diagram id="41ykS7JTn7UQ881Bo_8h" name="Acompanhe seu pedido">
    <mxGraphModel dx="2600" dy="589" grid="1" gridSize="10" guides="1" tooltips="1" connect="1" arrows="1" fold="1" page="1" pageScale="1" pageWidth="827" pageHeight="1169" math="0" shadow="0">
      <root>
        <mxCell id="idLc9d_l6A2cBDaMtnbR-0" />
        <mxCell id="idLc9d_l6A2cBDaMtnbR-1" parent="idLc9d_l6A2cBDaMtnbR-0" />
        <mxCell id="fl_eW3VQl85qkVKesCZz-0" value="" style="rounded=0;whiteSpace=wrap;html=1;" vertex="1" parent="idLc9d_l6A2cBDaMtnbR-1">
          <mxGeometry x="-1135" y="165" width="1100" height="50" as="geometry" />
        </mxCell>
        <mxCell id="fl_eW3VQl85qkVKesCZz-1" value="" style="rounded=0;whiteSpace=wrap;html=1;" vertex="1" parent="idLc9d_l6A2cBDaMtnbR-1">
          <mxGeometry x="-1135" y="30" width="1100" height="135" as="geometry" />
        </mxCell>
        <mxCell id="fl_eW3VQl85qkVKesCZz-2" value="Search" style="strokeWidth=1;shadow=0;dashed=0;align=center;html=1;shape=mxgraph.mockup.forms.searchBox;strokeColor=#999999;mainText=;strokeColor2=#008cff;fontColor=#666666;fontSize=17;align=left;spacingLeft=3;rounded=0;labelBackgroundColor=none;comic=1;" vertex="1" parent="idLc9d_l6A2cBDaMtnbR-1">
          <mxGeometry x="-835" y="85" width="370" height="30" as="geometry" />
        </mxCell>
        <mxCell id="fl_eW3VQl85qkVKesCZz-3" value="Login/Registro/Usuário" style="text;html=1;points=[];align=left;verticalAlign=top;spacingTop=-4;fontSize=14;fontFamily=Verdana" vertex="1" parent="idLc9d_l6A2cBDaMtnbR-1">
          <mxGeometry x="-452" y="90" width="60" height="20" as="geometry" />
        </mxCell>
        <mxCell id="fl_eW3VQl85qkVKesCZz-4" value="Favoritos(icone)" style="text;html=1;points=[];align=left;verticalAlign=top;spacingTop=-4;fontSize=14;fontFamily=Verdana" vertex="1" parent="idLc9d_l6A2cBDaMtnbR-1">
          <mxGeometry x="-305" y="90" width="60" height="20" as="geometry" />
        </mxCell>
        <mxCell id="fl_eW3VQl85qkVKesCZz-5" value="Itens no carrinho(Icone)" style="text;html=1;points=[];align=left;verticalAlign=top;spacingTop=-4;fontSize=14;fontFamily=Verdana" vertex="1" parent="idLc9d_l6A2cBDaMtnbR-1">
          <mxGeometry x="-205" y="90" width="60" height="20" as="geometry" />
        </mxCell>
        <mxCell id="fl_eW3VQl85qkVKesCZz-6" value="Menu" style="text;html=1;points=[];align=left;verticalAlign=top;spacingTop=-4;fontSize=14;fontFamily=Verdana" vertex="1" parent="idLc9d_l6A2cBDaMtnbR-1">
          <mxGeometry x="-1075" y="180" width="60" height="20" as="geometry" />
        </mxCell>
        <mxCell id="fl_eW3VQl85qkVKesCZz-7" value="&lt;font style=&quot;font-size: 36px&quot;&gt;Logo&lt;/font&gt;" style="rounded=1;whiteSpace=wrap;html=1;" vertex="1" parent="idLc9d_l6A2cBDaMtnbR-1">
          <mxGeometry x="-1105" y="55" width="230" height="80" as="geometry" />
        </mxCell>
        <mxCell id="fl_eW3VQl85qkVKesCZz-8" value="" style="rounded=0;whiteSpace=wrap;html=1;" vertex="1" parent="idLc9d_l6A2cBDaMtnbR-1">
          <mxGeometry x="-1135" y="215" width="1100" height="50" as="geometry" />
        </mxCell>
      </root>
    </mxGraphModel>
  </diagram>
  <diagram id="ZZih3XcRGYH3-U__97PG" name="Confirmação de compra">
    <mxGraphModel dx="2646" dy="589" grid="1" gridSize="10" guides="1" tooltips="1" connect="1" arrows="1" fold="1" page="1" pageScale="1" pageWidth="850" pageHeight="1100" math="0" shadow="0">
      <root>
        <mxCell id="fYHs2IggpskuXMHmWMrh-0" />
        <mxCell id="fYHs2IggpskuXMHmWMrh-1" parent="fYHs2IggpskuXMHmWMrh-0" />
        <mxCell id="fS0Lel8DAlnjByEuAREH-0" value="" style="rounded=0;whiteSpace=wrap;html=1;" vertex="1" parent="fYHs2IggpskuXMHmWMrh-1">
          <mxGeometry x="-1135" y="165" width="1100" height="50" as="geometry" />
        </mxCell>
        <mxCell id="fS0Lel8DAlnjByEuAREH-1" value="" style="rounded=0;whiteSpace=wrap;html=1;" vertex="1" parent="fYHs2IggpskuXMHmWMrh-1">
          <mxGeometry x="-1135" y="30" width="1100" height="135" as="geometry" />
        </mxCell>
        <mxCell id="fS0Lel8DAlnjByEuAREH-2" value="Search" style="strokeWidth=1;shadow=0;dashed=0;align=center;html=1;shape=mxgraph.mockup.forms.searchBox;strokeColor=#999999;mainText=;strokeColor2=#008cff;fontColor=#666666;fontSize=17;align=left;spacingLeft=3;rounded=0;labelBackgroundColor=none;comic=1;" vertex="1" parent="fYHs2IggpskuXMHmWMrh-1">
          <mxGeometry x="-835" y="85" width="370" height="30" as="geometry" />
        </mxCell>
        <mxCell id="fS0Lel8DAlnjByEuAREH-3" value="Login/Registro/Usuário" style="text;html=1;points=[];align=left;verticalAlign=top;spacingTop=-4;fontSize=14;fontFamily=Verdana" vertex="1" parent="fYHs2IggpskuXMHmWMrh-1">
          <mxGeometry x="-452" y="90" width="60" height="20" as="geometry" />
        </mxCell>
        <mxCell id="fS0Lel8DAlnjByEuAREH-4" value="Favoritos(icone)" style="text;html=1;points=[];align=left;verticalAlign=top;spacingTop=-4;fontSize=14;fontFamily=Verdana" vertex="1" parent="fYHs2IggpskuXMHmWMrh-1">
          <mxGeometry x="-305" y="90" width="60" height="20" as="geometry" />
        </mxCell>
        <mxCell id="fS0Lel8DAlnjByEuAREH-5" value="Itens no carrinho(Icone)" style="text;html=1;points=[];align=left;verticalAlign=top;spacingTop=-4;fontSize=14;fontFamily=Verdana" vertex="1" parent="fYHs2IggpskuXMHmWMrh-1">
          <mxGeometry x="-205" y="90" width="60" height="20" as="geometry" />
        </mxCell>
        <mxCell id="fS0Lel8DAlnjByEuAREH-6" value="Menu" style="text;html=1;points=[];align=left;verticalAlign=top;spacingTop=-4;fontSize=14;fontFamily=Verdana" vertex="1" parent="fYHs2IggpskuXMHmWMrh-1">
          <mxGeometry x="-1075" y="180" width="60" height="20" as="geometry" />
        </mxCell>
        <mxCell id="fS0Lel8DAlnjByEuAREH-7" value="&lt;font style=&quot;font-size: 36px&quot;&gt;Logo&lt;/font&gt;" style="rounded=1;whiteSpace=wrap;html=1;" vertex="1" parent="fYHs2IggpskuXMHmWMrh-1">
          <mxGeometry x="-1105" y="55" width="230" height="80" as="geometry" />
        </mxCell>
        <mxCell id="fS0Lel8DAlnjByEuAREH-8" value="" style="rounded=0;whiteSpace=wrap;html=1;" vertex="1" parent="fYHs2IggpskuXMHmWMrh-1">
          <mxGeometry x="-1135" y="215" width="1100" height="50" as="geometry" />
        </mxCell>
      </root>
    </mxGraphModel>
  </diagram>
  <diagram id="52Cz7JIrcb9SEXyH16ui" name="Pagamento">
    <mxGraphModel dx="2646" dy="589" grid="1" gridSize="10" guides="1" tooltips="1" connect="1" arrows="1" fold="1" page="1" pageScale="1" pageWidth="850" pageHeight="1100" math="0" shadow="0">
      <root>
        <mxCell id="2Rp3DTuk9bnwPIcLgobM-0" />
        <mxCell id="2Rp3DTuk9bnwPIcLgobM-1" parent="2Rp3DTuk9bnwPIcLgobM-0" />
        <mxCell id="2Rp3DTuk9bnwPIcLgobM-2" value="" style="rounded=0;whiteSpace=wrap;html=1;" parent="2Rp3DTuk9bnwPIcLgobM-1" vertex="1">
          <mxGeometry x="-1135" y="165" width="1100" height="50" as="geometry" />
        </mxCell>
        <mxCell id="2Rp3DTuk9bnwPIcLgobM-3" value="" style="rounded=0;whiteSpace=wrap;html=1;" parent="2Rp3DTuk9bnwPIcLgobM-1" vertex="1">
          <mxGeometry x="-1135" y="30" width="1100" height="135" as="geometry" />
        </mxCell>
        <mxCell id="2Rp3DTuk9bnwPIcLgobM-4" value="Search" style="strokeWidth=1;shadow=0;dashed=0;align=center;html=1;shape=mxgraph.mockup.forms.searchBox;strokeColor=#999999;mainText=;strokeColor2=#008cff;fontColor=#666666;fontSize=17;align=left;spacingLeft=3;rounded=0;labelBackgroundColor=none;comic=1;" parent="2Rp3DTuk9bnwPIcLgobM-1" vertex="1">
          <mxGeometry x="-835" y="85" width="370" height="30" as="geometry" />
        </mxCell>
        <mxCell id="2Rp3DTuk9bnwPIcLgobM-5" value="Login/Registro/Usuário" style="text;html=1;points=[];align=left;verticalAlign=top;spacingTop=-4;fontSize=14;fontFamily=Verdana" parent="2Rp3DTuk9bnwPIcLgobM-1" vertex="1">
          <mxGeometry x="-452" y="90" width="60" height="20" as="geometry" />
        </mxCell>
        <mxCell id="2Rp3DTuk9bnwPIcLgobM-6" value="Favoritos(icone)" style="text;html=1;points=[];align=left;verticalAlign=top;spacingTop=-4;fontSize=14;fontFamily=Verdana" parent="2Rp3DTuk9bnwPIcLgobM-1" vertex="1">
          <mxGeometry x="-305" y="90" width="60" height="20" as="geometry" />
        </mxCell>
        <mxCell id="2Rp3DTuk9bnwPIcLgobM-7" value="Itens no carrinho(Icone)" style="text;html=1;points=[];align=left;verticalAlign=top;spacingTop=-4;fontSize=14;fontFamily=Verdana" parent="2Rp3DTuk9bnwPIcLgobM-1" vertex="1">
          <mxGeometry x="-205" y="90" width="60" height="20" as="geometry" />
        </mxCell>
        <mxCell id="2Rp3DTuk9bnwPIcLgobM-8" value="Menu" style="text;html=1;points=[];align=left;verticalAlign=top;spacingTop=-4;fontSize=14;fontFamily=Verdana" parent="2Rp3DTuk9bnwPIcLgobM-1" vertex="1">
          <mxGeometry x="-1075" y="180" width="60" height="20" as="geometry" />
        </mxCell>
        <mxCell id="2Rp3DTuk9bnwPIcLgobM-9" value="&lt;font style=&quot;font-size: 36px&quot;&gt;Logo&lt;/font&gt;" style="rounded=1;whiteSpace=wrap;html=1;" parent="2Rp3DTuk9bnwPIcLgobM-1" vertex="1">
          <mxGeometry x="-1105" y="55" width="230" height="80" as="geometry" />
        </mxCell>
        <mxCell id="2Rp3DTuk9bnwPIcLgobM-10" value="&lt;u&gt;Carrinho&lt;/u&gt; &amp;gt; Chekout &amp;gt; Pedido Finalizado" style="rounded=0;whiteSpace=wrap;html=1;" parent="2Rp3DTuk9bnwPIcLgobM-1" vertex="1">
          <mxGeometry x="-1135" y="215" width="1100" height="50" as="geometry" />
        </mxCell>
      </root>
    </mxGraphModel>
  </diagram>
  <diagram id="3rdWCao1I7P862cr0tiw" name="Favoritos">
    <mxGraphModel dx="2646" dy="589" grid="1" gridSize="10" guides="1" tooltips="1" connect="1" arrows="1" fold="1" page="1" pageScale="1" pageWidth="850" pageHeight="1100" math="0" shadow="0">
      <root>
        <mxCell id="LD5bs4zplruE-wKCd_Z1-0" />
        <mxCell id="LD5bs4zplruE-wKCd_Z1-1" parent="LD5bs4zplruE-wKCd_Z1-0" />
        <mxCell id="fviAwKYPnKsjUHLFdf9X-0" value="" style="rounded=0;whiteSpace=wrap;html=1;" vertex="1" parent="LD5bs4zplruE-wKCd_Z1-1">
          <mxGeometry x="-1135" y="165" width="1100" height="50" as="geometry" />
        </mxCell>
        <mxCell id="fviAwKYPnKsjUHLFdf9X-1" value="" style="rounded=0;whiteSpace=wrap;html=1;" vertex="1" parent="LD5bs4zplruE-wKCd_Z1-1">
          <mxGeometry x="-1135" y="30" width="1100" height="135" as="geometry" />
        </mxCell>
        <mxCell id="fviAwKYPnKsjUHLFdf9X-2" value="Search" style="strokeWidth=1;shadow=0;dashed=0;align=center;html=1;shape=mxgraph.mockup.forms.searchBox;strokeColor=#999999;mainText=;strokeColor2=#008cff;fontColor=#666666;fontSize=17;align=left;spacingLeft=3;rounded=0;labelBackgroundColor=none;comic=1;" vertex="1" parent="LD5bs4zplruE-wKCd_Z1-1">
          <mxGeometry x="-835" y="85" width="370" height="30" as="geometry" />
        </mxCell>
        <mxCell id="fviAwKYPnKsjUHLFdf9X-3" value="Login/Registro/Usuário" style="text;html=1;points=[];align=left;verticalAlign=top;spacingTop=-4;fontSize=14;fontFamily=Verdana" vertex="1" parent="LD5bs4zplruE-wKCd_Z1-1">
          <mxGeometry x="-452" y="90" width="60" height="20" as="geometry" />
        </mxCell>
        <mxCell id="fviAwKYPnKsjUHLFdf9X-4" value="Favoritos(icone)" style="text;html=1;points=[];align=left;verticalAlign=top;spacingTop=-4;fontSize=14;fontFamily=Verdana" vertex="1" parent="LD5bs4zplruE-wKCd_Z1-1">
          <mxGeometry x="-305" y="90" width="60" height="20" as="geometry" />
        </mxCell>
        <mxCell id="fviAwKYPnKsjUHLFdf9X-5" value="Itens no carrinho(Icone)" style="text;html=1;points=[];align=left;verticalAlign=top;spacingTop=-4;fontSize=14;fontFamily=Verdana" vertex="1" parent="LD5bs4zplruE-wKCd_Z1-1">
          <mxGeometry x="-205" y="90" width="60" height="20" as="geometry" />
        </mxCell>
        <mxCell id="fviAwKYPnKsjUHLFdf9X-6" value="Menu" style="text;html=1;points=[];align=left;verticalAlign=top;spacingTop=-4;fontSize=14;fontFamily=Verdana" vertex="1" parent="LD5bs4zplruE-wKCd_Z1-1">
          <mxGeometry x="-1075" y="180" width="60" height="20" as="geometry" />
        </mxCell>
        <mxCell id="fviAwKYPnKsjUHLFdf9X-7" value="&lt;font style=&quot;font-size: 36px&quot;&gt;Logo&lt;/font&gt;" style="rounded=1;whiteSpace=wrap;html=1;" vertex="1" parent="LD5bs4zplruE-wKCd_Z1-1">
          <mxGeometry x="-1105" y="55" width="230" height="80" as="geometry" />
        </mxCell>
        <mxCell id="fviAwKYPnKsjUHLFdf9X-8" value="&lt;u&gt;Carrinho&lt;/u&gt; &amp;gt; Chekout &amp;gt; Pedido Finalizado" style="rounded=0;whiteSpace=wrap;html=1;" vertex="1" parent="LD5bs4zplruE-wKCd_Z1-1">
          <mxGeometry x="-1135" y="215" width="1100" height="50" as="geometry" />
        </mxCell>
      </root>
    </mxGraphModel>
  </diagram>
  <diagram id="JAtxmD2NfV7S5TOjT46_" name="Cadastro do jogo">
    <mxGraphModel dx="2646" dy="589" grid="1" gridSize="10" guides="1" tooltips="1" connect="1" arrows="1" fold="1" page="1" pageScale="1" pageWidth="850" pageHeight="1100" math="0" shadow="0">
      <root>
        <mxCell id="A_3gO4-GDPg2RZddwLQI-0" />
        <mxCell id="A_3gO4-GDPg2RZddwLQI-1" parent="A_3gO4-GDPg2RZddwLQI-0" />
        <mxCell id="A_3gO4-GDPg2RZddwLQI-2" value="" style="rounded=0;whiteSpace=wrap;html=1;" vertex="1" parent="A_3gO4-GDPg2RZddwLQI-1">
          <mxGeometry x="-1135" y="165" width="1100" height="50" as="geometry" />
        </mxCell>
        <mxCell id="A_3gO4-GDPg2RZddwLQI-3" value="" style="rounded=0;whiteSpace=wrap;html=1;" vertex="1" parent="A_3gO4-GDPg2RZddwLQI-1">
          <mxGeometry x="-1135" y="30" width="1100" height="135" as="geometry" />
        </mxCell>
        <mxCell id="A_3gO4-GDPg2RZddwLQI-4" value="Search" style="strokeWidth=1;shadow=0;dashed=0;align=center;html=1;shape=mxgraph.mockup.forms.searchBox;strokeColor=#999999;mainText=;strokeColor2=#008cff;fontColor=#666666;fontSize=17;align=left;spacingLeft=3;rounded=0;labelBackgroundColor=none;comic=1;" vertex="1" parent="A_3gO4-GDPg2RZddwLQI-1">
          <mxGeometry x="-835" y="85" width="370" height="30" as="geometry" />
        </mxCell>
        <mxCell id="A_3gO4-GDPg2RZddwLQI-5" value="Login/Registro/Usuário" style="text;html=1;points=[];align=left;verticalAlign=top;spacingTop=-4;fontSize=14;fontFamily=Verdana" vertex="1" parent="A_3gO4-GDPg2RZddwLQI-1">
          <mxGeometry x="-452" y="90" width="60" height="20" as="geometry" />
        </mxCell>
        <mxCell id="A_3gO4-GDPg2RZddwLQI-6" value="Favoritos(icone)" style="text;html=1;points=[];align=left;verticalAlign=top;spacingTop=-4;fontSize=14;fontFamily=Verdana" vertex="1" parent="A_3gO4-GDPg2RZddwLQI-1">
          <mxGeometry x="-305" y="90" width="60" height="20" as="geometry" />
        </mxCell>
        <mxCell id="A_3gO4-GDPg2RZddwLQI-7" value="Itens no carrinho(Icone)" style="text;html=1;points=[];align=left;verticalAlign=top;spacingTop=-4;fontSize=14;fontFamily=Verdana" vertex="1" parent="A_3gO4-GDPg2RZddwLQI-1">
          <mxGeometry x="-205" y="90" width="60" height="20" as="geometry" />
        </mxCell>
        <mxCell id="A_3gO4-GDPg2RZddwLQI-8" value="Menu" style="text;html=1;points=[];align=left;verticalAlign=top;spacingTop=-4;fontSize=14;fontFamily=Verdana" vertex="1" parent="A_3gO4-GDPg2RZddwLQI-1">
          <mxGeometry x="-1075" y="180" width="60" height="20" as="geometry" />
        </mxCell>
        <mxCell id="A_3gO4-GDPg2RZddwLQI-9" value="&lt;font style=&quot;font-size: 36px&quot;&gt;Logo&lt;/font&gt;" style="rounded=1;whiteSpace=wrap;html=1;" vertex="1" parent="A_3gO4-GDPg2RZddwLQI-1">
          <mxGeometry x="-1105" y="55" width="230" height="80" as="geometry" />
        </mxCell>
        <mxCell id="A_3gO4-GDPg2RZddwLQI-10" value="&lt;u&gt;Carrinho&lt;/u&gt; &amp;gt; Chekout &amp;gt; Pedido Finalizado" style="rounded=0;whiteSpace=wrap;html=1;" vertex="1" parent="A_3gO4-GDPg2RZddwLQI-1">
          <mxGeometry x="-1135" y="215" width="1100" height="50" as="geometry" />
        </mxCell>
      </root>
    </mxGraphModel>
  </diagram>
  <diagram id="necA7xC8uYr_u1PDyMAV" name="Quem somos">
    <mxGraphModel dx="2646" dy="589" grid="1" gridSize="10" guides="1" tooltips="1" connect="1" arrows="1" fold="1" page="1" pageScale="1" pageWidth="850" pageHeight="1100" math="0" shadow="0">
      <root>
        <mxCell id="_dv0Sc-YVc0Le6BnLMN1-0" />
        <mxCell id="_dv0Sc-YVc0Le6BnLMN1-1" parent="_dv0Sc-YVc0Le6BnLMN1-0" />
        <mxCell id="_dv0Sc-YVc0Le6BnLMN1-2" value="" style="rounded=0;whiteSpace=wrap;html=1;" vertex="1" parent="_dv0Sc-YVc0Le6BnLMN1-1">
          <mxGeometry x="-1135" y="165" width="1100" height="50" as="geometry" />
        </mxCell>
        <mxCell id="_dv0Sc-YVc0Le6BnLMN1-3" value="" style="rounded=0;whiteSpace=wrap;html=1;" vertex="1" parent="_dv0Sc-YVc0Le6BnLMN1-1">
          <mxGeometry x="-1135" y="30" width="1100" height="135" as="geometry" />
        </mxCell>
        <mxCell id="_dv0Sc-YVc0Le6BnLMN1-4" value="Search" style="strokeWidth=1;shadow=0;dashed=0;align=center;html=1;shape=mxgraph.mockup.forms.searchBox;strokeColor=#999999;mainText=;strokeColor2=#008cff;fontColor=#666666;fontSize=17;align=left;spacingLeft=3;rounded=0;labelBackgroundColor=none;comic=1;" vertex="1" parent="_dv0Sc-YVc0Le6BnLMN1-1">
          <mxGeometry x="-835" y="85" width="370" height="30" as="geometry" />
        </mxCell>
        <mxCell id="_dv0Sc-YVc0Le6BnLMN1-5" value="Login/Registro/Usuário" style="text;html=1;points=[];align=left;verticalAlign=top;spacingTop=-4;fontSize=14;fontFamily=Verdana" vertex="1" parent="_dv0Sc-YVc0Le6BnLMN1-1">
          <mxGeometry x="-452" y="90" width="60" height="20" as="geometry" />
        </mxCell>
        <mxCell id="_dv0Sc-YVc0Le6BnLMN1-6" value="Favoritos(icone)" style="text;html=1;points=[];align=left;verticalAlign=top;spacingTop=-4;fontSize=14;fontFamily=Verdana" vertex="1" parent="_dv0Sc-YVc0Le6BnLMN1-1">
          <mxGeometry x="-305" y="90" width="60" height="20" as="geometry" />
        </mxCell>
        <mxCell id="_dv0Sc-YVc0Le6BnLMN1-7" value="Itens no carrinho(Icone)" style="text;html=1;points=[];align=left;verticalAlign=top;spacingTop=-4;fontSize=14;fontFamily=Verdana" vertex="1" parent="_dv0Sc-YVc0Le6BnLMN1-1">
          <mxGeometry x="-205" y="90" width="60" height="20" as="geometry" />
        </mxCell>
        <mxCell id="_dv0Sc-YVc0Le6BnLMN1-8" value="Menu" style="text;html=1;points=[];align=left;verticalAlign=top;spacingTop=-4;fontSize=14;fontFamily=Verdana" vertex="1" parent="_dv0Sc-YVc0Le6BnLMN1-1">
          <mxGeometry x="-1075" y="180" width="60" height="20" as="geometry" />
        </mxCell>
        <mxCell id="_dv0Sc-YVc0Le6BnLMN1-9" value="&lt;font style=&quot;font-size: 36px&quot;&gt;Logo&lt;/font&gt;" style="rounded=1;whiteSpace=wrap;html=1;" vertex="1" parent="_dv0Sc-YVc0Le6BnLMN1-1">
          <mxGeometry x="-1105" y="55" width="230" height="80" as="geometry" />
        </mxCell>
        <mxCell id="_dv0Sc-YVc0Le6BnLMN1-10" value="&lt;u&gt;Carrinho&lt;/u&gt; &amp;gt; Chekout &amp;gt; Pedido Finalizado" style="rounded=0;whiteSpace=wrap;html=1;" vertex="1" parent="_dv0Sc-YVc0Le6BnLMN1-1">
          <mxGeometry x="-1135" y="215" width="1100" height="50" as="geometry" />
        </mxCell>
      </root>
    </mxGraphModel>
  </diagram>
  <diagram id="ku57GFmSWPMtmZncLMs2" name="Termos de uso">
    <mxGraphModel dx="946" dy="589" grid="1" gridSize="10" guides="1" tooltips="1" connect="1" arrows="1" fold="1" page="1" pageScale="1" pageWidth="850" pageHeight="1100" math="0" shadow="0">
      <root>
        <mxCell id="kTYzZOTmNLX7BAYkyTRQ-0" />
        <mxCell id="kTYzZOTmNLX7BAYkyTRQ-1" parent="kTYzZOTmNLX7BAYkyTRQ-0" />
      </root>
    </mxGraphModel>
  </diagram>
  <diagram id="VzepC-Y5FyIqI_XY9t8r" name="Login">
    <mxGraphModel dx="946" dy="589" grid="1" gridSize="10" guides="1" tooltips="1" connect="1" arrows="1" fold="1" page="1" pageScale="1" pageWidth="850" pageHeight="1100" math="0" shadow="0">
      <root>
        <mxCell id="mj-J-BZY_R__KjuEnV0y-0" />
        <mxCell id="mj-J-BZY_R__KjuEnV0y-1" parent="mj-J-BZY_R__KjuEnV0y-0" />
      </root>
    </mxGraphModel>
  </diagram>
</mxfile>
